# xmcd CD database file generated by Grip 2.96
# 
# Track frame offsets:
#       182
#       12660
#       24382
#       38497
#       52045
#       66620
#       81290
#       94450
#       107792
#       121625
#       136767
#       151737
#       166297
#       180060
#       194512
#       209302
# 
# Disc length: 2971 seconds
# 
# Revision: 0
# Processed by: cddbd v1.4PL0 Copyright (c) Steve Scherf et al.
# Submitted via: Grip 2.96
# 
DISCID=d00b9910
DTITLE=Billie Holiday - Billie Holiday Vol.2
DYEAR=1900
DGENRE=
TTITLE0=Your Mother's Son-In-Law
TTITLE1=Riffin' The Scotch
TTITLE2=I Wished On The Moon
TTITLE3=What A Little Moonlight Can Do
TTITLE4=If You Were Mine
TTITLE5=These 'n That 'n Those
TTITLE6=You Let Me Down
TTITLE7=Spreadin' Rhythm Around
TTITLE8=Life Begins When You're In Love
TTITLE9=It's Like reaching The Moon
TTITLE10=These Foolish Things
TTITLE11=I Cried For You
TTITLE12=Let's Call A Heart A Heart
TTITLE13=Easy To Love
TTITLE14=With Thee I Swing
TTITLE15=The Way You Look Tonight
EXTD=
EXTT0=
EXTT1=
EXTT2=
EXTT3=
EXTT4=
EXTT5=
EXTT6=
EXTT7=
EXTT8=
EXTT9=
EXTT10=
EXTT11=
EXTT12=
EXTT13=
EXTT14=
EXTT15=
PLAYORDER=
